<svg xmlns="http://www.w3.org/2000/svg" version="1.1" xmlns:xlink="http://www.w3.org/1999/xlink" xmlns:svgjs="http://svgjs.dev/svgjs" width="2000" height="1500" viewBox="0 0 2000 1500"><rect width="2000" height="1500" fill="#000e22"></rect><g transform="matrix(0.75,0,0,0.75,249.090909090909,282.7536437246963)"><svg viewBox="0 0 396 247" data-background-color="#000e22" preserveAspectRatio="xMidYMid meet" height="1247" width="2000" xmlns="http://www.w3.org/2000/svg" xmlns:xlink="http://www.w3.org/1999/xlink"><g id="tight-bounds" transform="matrix(1,0,0,1,0.2400000000000091,-0.09999999999999432)"><svg viewBox="0 0 395.52 247.2" height="247.2" width="395.52"><g><svg></svg></g><g><svg viewBox="0 0 395.52 247.2" height="247.2" width="395.52"><g transform="matrix(1,0,0,1,92.26388333279999,94.95974135571458)"><svg viewBox="0 0 210.9922333344 57.28051728857082" height="57.28051728857082" width="210.9922333344"><g><svg viewBox="0 0 210.9922333344 57.28051728857082" height="57.28051728857082" width="210.9922333344"><g><svg viewBox="0 0 210.9922333344 57.28051728857082" height="57.28051728857082" width="210.9922333344"><g><path d="M0 57.281v-57.281h210.992v57.281z" fill="#fe0039" stroke="transparent" stroke-width="0" rx="0%" data-fill-palette-color="tertiary"></path><path d="M2.787 54.494v-51.707h205.419v51.707z" fill="#0f151e" stroke="transparent" stroke-width="0" rx="0%" data-fill-palette-color="quaternary"></path><path d="M8.36 48.921v-40.561h194.272v40.561z" fill="#fe0039" stroke="transparent" stroke-width="0" data-fill-palette-color="tertiary"></path></g><g transform="matrix(1,0,0,1,16.7195633328,16.7195633328)" id="textblocktransform"><svg viewBox="0 0 177.5531066688 23.841390622970817" height="23.841390622970817" width="177.5531066688" id="textblock"><g><svg viewBox="0 0 177.5531066688 23.841390622970817" height="23.841390622970817" width="177.5531066688"><g transform="matrix(1,0,0,1,0,0)"><svg width="177.5531066688" viewBox="3.0999999999999996 -37.45 278.85999999999996 37.45" height="23.841390622970817" data-palette-color="#0f151e"><path d="M17.95 0L6.6 0Q5.2 0 4.15-1.05 3.1-2.1 3.1-3.65L3.1-3.65 3.1-31.35Q3.1-32.9 4.15-33.95 5.2-35 6.6-35L6.6-35 17.95-35Q19.55-35 20.58-33.95 21.6-32.9 21.6-31.35L21.6-31.35 21.6-3.65Q21.6-2.1 20.58-1.05 19.55 0 17.95 0L17.95 0ZM9.45-4.6L9.45-4.6 15.1-4.6Q15.95-4.6 16.48-5.15 17-5.7 17-6.5L17-6.5 17-28.5Q17-29.35 16.48-29.88 15.95-30.4 15.1-30.4L15.1-30.4 9.45-30.4Q8.75-30.4 8.22-29.88 7.7-29.35 7.7-28.5L7.7-28.5 7.7-6.5Q7.7-5.7 8.22-5.15 8.75-4.6 9.45-4.6ZM40.15 0L28.8 0Q27.3 0 26.25-1.05 25.2-2.1 25.2-3.6L25.2-3.6 25.2-11.35 29.85-10.3 29.85-6.45Q29.85-5.7 30.37-5.18 30.9-4.65 31.6-4.65L31.6-4.65 37.3-4.65Q38.05-4.65 38.57-5.18 39.1-5.7 39.1-6.45L39.1-6.45 39.1-15.25Q39.1-16 38.57-16.53 38.05-17.05 37.3-17.05L37.3-17.05 28.8-17.05Q27.3-17.05 26.25-18.1 25.2-19.15 25.2-20.65L25.2-20.65 25.2-31.4Q25.2-32.9 26.25-33.95 27.3-35 28.8-35L28.8-35 40.15-35Q41.65-35 42.7-33.95 43.75-32.9 43.75-31.4L43.75-31.4 43.75-26 39.1-27.1 39.1-28.55Q39.1-29.3 38.57-29.83 38.05-30.35 37.3-30.35L37.3-30.35 31.6-30.35Q30.9-30.35 30.37-29.83 29.85-29.3 29.85-28.55L29.85-28.55 29.85-23.5Q29.85-22.75 30.37-22.23 30.9-21.7 31.6-21.7L31.6-21.7 40.15-21.7Q41.65-21.7 42.7-20.65 43.75-19.6 43.75-18.1L43.75-18.1 43.75-3.6Q43.75-2.1 42.7-1.05 41.65 0 40.15 0L40.15 0ZM61.49 0L56.84 0 56.84-35 71.84-35Q73.29-35 74.37-33.95 75.44-32.9 75.44-31.4L75.44-31.4 75.44-20.65Q75.44-19.15 74.37-18.1 73.29-17.05 71.84-17.05L71.84-17.05 61.49-17.05 61.49 0ZM61.49-30.35L61.49-21.7 68.99-21.7Q69.74-21.7 70.27-22.23 70.79-22.75 70.79-23.5L70.79-23.5 70.79-28.6Q70.79-29.3 70.27-29.83 69.74-30.35 68.99-30.35L68.99-30.35 61.49-30.35ZM96.64 0L81.64 0 81.64-35 96.64-35Q98.09-35 99.14-33.95 100.19-32.9 100.19-31.4L100.19-31.4 100.19-3.6Q100.19-2.1 99.14-1.05 98.09 0 96.64 0L96.64 0ZM86.29-30.35L86.29-4.65 93.79-4.65Q94.49-4.65 95.04-5.18 95.59-5.7 95.59-6.45L95.59-6.45 95.59-28.55Q95.59-29.3 95.04-29.83 94.49-30.35 93.79-30.35L93.79-30.35 86.29-30.35ZM109.04 0L104.39 0 104.39-35 122.99-35 122.99-30.35 109.04-30.35 109.04-21.7 118.34-21.7 117.29-17.05 109.04-17.05 109.04 0ZM149.13 0L137.78 0Q136.38 0 135.28-1.05 134.18-2.1 134.18-3.6L134.18-3.6 134.18-31.4Q134.18-32.85 135.28-33.93 136.38-35 137.78-35L137.78-35 149.13-35Q150.68-35 151.71-33.93 152.73-32.85 152.73-31.4L152.73-31.4 152.73-24.9 148.08-23.85 148.08-28.55Q148.08-29.25 147.61-29.8 147.13-30.35 146.33-30.35L146.33-30.35 140.63-30.35Q139.93-30.35 139.38-29.8 138.83-29.25 138.83-28.55L138.83-28.55 138.83-6.45Q138.83-5.65 139.38-5.15 139.93-4.65 140.63-4.65L140.63-4.65 146.33-4.65Q147.13-4.65 147.61-5.15 148.08-5.65 148.08-6.45L148.08-6.45 148.08-10.1 152.73-11.2 152.73-3.6Q152.73-2.1 151.71-1.05 150.68 0 149.13 0L149.13 0ZM166.18 0L159.38 0Q157.83 0 156.78-1.07 155.73-2.15 155.73-3.65L155.73-3.65 155.73-21.35Q155.73-22.85 156.78-23.93 157.83-25 159.38-25L159.38-25 166.18-25Q167.68-25 168.73-23.93 169.78-22.85 169.78-21.35L169.78-21.35 169.78-3.65Q169.78-2.15 168.73-1.07 167.68 0 166.18 0L166.18 0ZM162.23-4.7L162.23-4.7 163.28-4.7Q164.03-4.7 164.58-5.23 165.13-5.75 165.13-6.5L165.13-6.5 165.13-18.5Q165.13-19.25 164.58-19.78 164.03-20.3 163.28-20.3L163.28-20.3 162.23-20.3Q161.48-20.3 160.96-19.78 160.43-19.25 160.43-18.5L160.43-18.5 160.43-6.5Q160.43-5.75 160.96-5.23 161.48-4.7 162.23-4.7ZM177.73 0L173.03 0 173.03-25 183.48-25Q184.93-25 186.03-23.95 187.13-22.9 187.13-21.4L187.13-21.4 187.13 0 182.43 0 182.43-18.5Q182.43-19.3 181.88-19.8 181.33-20.3 180.63-20.3L180.63-20.3 177.73-20.3 177.73 0ZM199.23 0L194.53 0 189.83-25 194.53-25 196.88-12.5 199.23-25 203.93-25 199.23 0ZM219.52 0L209.07 0Q207.57 0 206.5-1.07 205.42-2.15 205.42-3.65L205.42-3.65 205.42-21.4Q205.42-22.9 206.5-23.95 207.57-25 209.07-25L209.07-25 215.87-25Q217.42-25 218.47-23.95 219.52-22.9 219.52-21.4L219.52-21.4 219.52-13.8Q219.52-12.3 218.47-11.23 217.42-10.15 215.87-10.15L215.87-10.15 210.12-10.15 210.12-6.5Q210.12-5.75 210.65-5.23 211.17-4.7 211.97-4.7L211.97-4.7 218.47-4.7 219.52 0ZM210.12-18.5L210.12-14.85 213.02-14.85Q213.77-14.85 214.3-15.38 214.82-15.9 214.82-16.65L214.82-16.65 214.82-18.5Q214.82-19.25 214.3-19.78 213.77-20.3 213.02-20.3L213.02-20.3 211.97-20.3Q211.17-20.3 210.65-19.78 210.12-19.25 210.12-18.5L210.12-18.5ZM226.72 0L222.02 0 222.02-25 232.47-25Q233.97-25 235.05-23.93 236.12-22.85 236.12-21.35L236.12-21.35 236.12-15.9 231.42-16.95 231.42-18.45Q231.42-19.2 230.9-19.75 230.37-20.3 229.62-20.3L229.62-20.3 226.72-20.3 226.72 0ZM243.82 0L239.12 0 239.12-36.4 243.82-37.45 243.82-25 249.77-25 248.67-20.3 243.82-20.3 243.82 0ZM265.37 0L254.92 0Q253.42 0 252.34-1.07 251.27-2.15 251.27-3.65L251.27-3.65 251.27-21.4Q251.27-22.9 252.34-23.95 253.42-25 254.92-25L254.92-25 261.72-25Q263.26-25 264.31-23.95 265.37-22.9 265.37-21.4L265.37-21.4 265.37-13.8Q265.37-12.3 264.31-11.23 263.26-10.15 261.72-10.15L261.72-10.15 255.97-10.15 255.97-6.5Q255.97-5.75 256.49-5.23 257.01-4.7 257.81-4.7L257.81-4.7 264.31-4.7 265.37 0ZM255.97-18.5L255.97-14.85 258.87-14.85Q259.62-14.85 260.14-15.38 260.67-15.9 260.67-16.65L260.67-16.65 260.67-18.5Q260.67-19.25 260.14-19.78 259.62-20.3 258.87-20.3L258.87-20.3 257.81-20.3Q257.01-20.3 256.49-19.78 255.97-19.25 255.97-18.5L255.97-18.5ZM272.56 0L267.86 0 267.86-25 278.31-25Q279.81-25 280.89-23.93 281.96-22.85 281.96-21.35L281.96-21.35 281.96-15.9 277.26-16.95 277.26-18.45Q277.26-19.2 276.74-19.75 276.21-20.3 275.46-20.3L275.46-20.3 272.56-20.3 272.56 0Z" opacity="1" transform="matrix(1,0,0,1,0,0)" fill="#0f151e" class="wordmark-text-0" data-fill-palette-color="quaternary" id="text-0"></path></svg></g></svg></g></svg></g></svg></g><g></g></svg></g></svg></g><g><path d="M97.966 89.387A105.496 105.496 0 0 1 297.554 89.387L295.425 89.387A103.367 103.367 0 0 0 100.095 89.387L97.966 89.387M97.966 157.813A105.496 105.496 0 0 0 297.554 157.813L295.425 157.813A103.367 103.367 0 0 1 100.095 157.813L97.966 157.813" fill="#fe0039" stroke="transparent" data-fill-palette-color="tertiary"></path></g></svg></g><defs></defs></svg><rect width="395.52" height="247.2" fill="none" stroke="none" visibility="hidden"></rect></g></svg></g></svg>